Coordinates
version=1
nRows=6
nColumns=36
inDegrees=yes

Units are S.I. units (second, meters, Newtons, ...)
If the header above contains a line with 'inDegrees', this indicates whether rotational values are in degrees (yes) or radians (no).

endheader
time	pelvis_tilt	pelvis_list	pelvis_rotation	pelvis_tx	pelvis_ty	pelvis_tz	hip_flexion_r	hip_adduction_r	hip_rotation_r	knee_angle_r	knee_angle_r_beta	ankle_angle_r	subtalar_angle_r	mtp_angle_r	hip_flexion_l	hip_adduction_l	hip_rotation_l	knee_angle_l	knee_angle_l_beta	ankle_angle_l	subtalar_angle_l	mtp_angle_l	lumbar_extension	lumbar_bending	lumbar_rotation	arm_flex_r	arm_add_r	arm_rot_r	elbow_flex_r	pro_sup_r	arm_flex_l	arm_add_l	arm_rot_l	elbow_flex_l	pro_sup_l
      1.47916670	     -8.50176555	      1.72636437	     -0.16805421	     -0.90358768	      1.19659908	     -0.06143524	     25.44516535	     -1.88827346	      1.79510962	     37.51674017	      0.65479064	     14.66412423	    -17.74161979	     -7.49999987	     24.28869412	      0.46533643	      0.74401533	     35.03995511	      0.61156259	     11.96029430	    -10.60789202	     -7.49999987	    -12.58743250	     -0.32367377	     -2.49143863	      5.50355571	     -4.15838720	     -0.29390043	     28.05793673	     85.59233889	      7.18599867	     -6.96753014	      8.64613696	     31.63290716	     96.84401488
      1.48333330	     -8.22210103	      1.76102715	     -0.24907953	     -0.90362116	      1.19791662	     -0.06136123	     25.08011027	     -1.91070904	      1.78403959	     37.41718357	      0.65305305	     14.61649847	    -17.73679835	     -7.49999987	     23.79700104	      0.50837146	      0.74299912	     34.71621782	      0.60591230	     12.11839480	    -10.30581733	     -7.49999987	    -12.89243843	     -0.42120914	     -2.51421080	      5.61112736	     -4.07447480	     -0.33634935	     27.97591970	     84.61741019	      7.19297830	     -6.95194826	      8.52245750	     31.56814142	     95.59821677
      1.48750000	     -7.97316330	      1.72656013	     -0.29494174	     -0.90338262	      1.19602623	     -0.06062987	     24.84132211	     -1.85512739	      1.71452920	     37.52858711	      0.65499741	     14.58905366	    -17.98543106	     -7.49999987	     23.52256649	      0.41676099	      0.70169078	     34.76463106	      0.60675728	     12.33013300	    -10.09376094	     -7.49999987	    -13.23451509	     -0.44002431	     -2.51138470	      5.62829850	     -4.02059603	     -0.86138193	     28.12599387	     87.72372077	      7.17170198	     -6.92874700	      7.70465073	     31.78301419	     99.32995992
      1.49166670	     -8.00978297	      1.78274286	     -0.37634562	     -0.90320114	      1.19339073	     -0.06102895	     25.08992389	     -1.93624834	      1.60694082	     37.96504057	      0.66261496	     14.65473656	    -18.29257429	     -7.49999987	     23.63290442	      0.41274562	      0.61023310	     34.98941678	      0.61068053	     12.45091134	    -10.26397464	     -7.49999987	    -13.15086942	     -0.55367252	     -2.57837998	      5.61478525	     -3.95970901	     -0.87519309	     28.12188352	     86.17456159	      7.06335726	     -6.93625248	      7.76381899	     31.77421717	     97.06611647
      1.49583330	     -8.23530177	      1.79444255	     -0.42479197	     -0.90378348	      1.19348843	     -0.06196597	     25.52713257	     -1.97001067	      1.59396610	     38.29726129	      0.66841330	     14.56048281	    -18.74059358	     -7.49999987	     24.01899406	      0.46343161	      0.68903164	     35.25792065	      0.61536680	     12.61440250	    -10.39171996	     -7.49999987	    -12.85292852	     -0.50623168	     -2.58045469	      5.60414933	     -3.97161412	     -0.72864245	     28.00103972	     85.25945461	      7.02212921	     -6.92429048	      7.90799958	     31.66087892	     96.31126205
      1.50000000	     -8.22354299	      1.80254869	     -0.42855984	     -0.90396788	      1.19550490	     -0.06089697	     25.53305759	     -1.97652788	      1.54447191	     38.24840044	      0.66756052	     14.55050344	    -18.79310599	     -7.49999987	     23.94482482	      0.45890856	      0.68176544	     35.21473178	      0.61461301	     12.80738497	    -10.18837986	     -7.49999987	    -12.85049874	     -0.53275377	     -2.49742378	      5.56916158	     -4.10378026	     -0.10571641	     28.02661243	     85.74911553	      7.13938662	     -7.05641053	      8.77317050	     31.52682145	     96.56134382
